HIERARCHY
ROOT Hips
{
	OFFSET 0.000000 0.000000 0.000000 
	CHANNELS 6 Xposition Yposition Zposition Zrotation Yrotation Xrotation
	JOINT LeftUpLeg
	{
		OFFSET 1.363060 -1.794630 0.839290 
		CHANNELS 3 Zrotation Yrotation Xrotation
		JOINT LeftLeg
		{
			OFFSET 2.448110 -6.726130 0.000000 
			CHANNELS 3 Zrotation Yrotation Xrotation
			JOINT LeftFoot
			{
				OFFSET 2.562200 -7.039590 0.000000 
				CHANNELS 3 Zrotation Yrotation Xrotation
				JOINT LeftToeBase
				{
					OFFSET 0.157640 -0.433110 2.322550 
					CHANNELS 3 Zrotation Yrotation Xrotation
					End Site
					{
						OFFSET 0.000000 0.000000 0.000000 
					}
				}
			}
		}
	}
	JOINT RightUpLeg
	{
		OFFSET -1.305520 -1.794630 0.839290 
		CHANNELS 3 Zrotation Yrotation Xrotation
		JOINT RightLeg
		{
			OFFSET -2.542530 -6.985550 0.000000 
			CHANNELS 3 Zrotation Yrotation Xrotation
			JOINT RightFoot
			{
				OFFSET -2.568260 -7.056230 0.000000 
				CHANNELS 3 Zrotation Yrotation Xrotation
				JOINT RightToeBase
				{
					OFFSET -0.164730 -0.452590 2.363150 
					CHANNELS 3 Zrotation Yrotation Xrotation
					End Site
					{
						OFFSET 0.000000 0.000000 0.000000 
					}
				}
			}
		}
	}
	JOINT Spine
	{
		OFFSET 0.028270 2.035590 -0.193380 
		CHANNELS 3 Zrotation Yrotation Xrotation
		JOINT Spine1
		{
			OFFSET 0.056720 2.048850 -0.042750 
			CHANNELS 3 Zrotation Yrotation Xrotation
			JOINT Neck1
			{
				OFFSET -0.054170 1.746240 0.172020 
				CHANNELS 3 Zrotation Yrotation Xrotation
				JOINT Head
				{
					OFFSET 0.104070 1.761360 -0.123970 
					CHANNELS 3 Zrotation Yrotation Xrotation
					End Site
					{
						OFFSET 0.000000 0.000000 0.000000 
					}
				}
			}
			JOINT LeftArm
			{
				OFFSET 3.362410 1.200890 -0.311210 
				CHANNELS 3 Zrotation Yrotation Xrotation
				JOINT LeftForeArm
				{
					OFFSET 4.983000 -0.000000 -0.000000 
					CHANNELS 3 Zrotation Yrotation Xrotation
					JOINT LeftHand
					{
						OFFSET 3.483560 -0.000000 -0.000000 
						CHANNELS 3 Zrotation Yrotation Xrotation
						JOINT LeftHandIndex1
						{
							OFFSET 0.715260 -0.000000 -0.000000 
							CHANNELS 3 Zrotation Yrotation Xrotation
							End Site
							{
								OFFSET 0.000000 0.000000 0.000000 
							}
						}
					}
				}
			}
			JOINT RightArm
			{
				OFFSET -3.136600 1.374050 -0.404650 
				CHANNELS 3 Zrotation Yrotation Xrotation
				JOINT RightForeArm
				{
					OFFSET -5.241900 -0.000000 -0.000000 
					CHANNELS 3 Zrotation Yrotation Xrotation
					JOINT RightHand
					{
						OFFSET -3.444170 -0.000000 -0.000000 
						CHANNELS 3 Zrotation Yrotation Xrotation
						JOINT RightHandIndex1
						{
							OFFSET -0.622530 -0.000000 -0.000000 
							CHANNELS 3 Zrotation Yrotation Xrotation
							End Site
							{
								OFFSET 0.000000 0.000000 0.000000 
							}
						}
					}
				}
			}
		}
	}
}
MOTION
Frames: 15
Frame Time: 0.041667
-10.258539 17.922684 5.558604 -33.137757 77.566388 -17.764519 -3.952662 1.134796 -28.162596 1.253170 9.531605 27.710473 -0.603713 4.277027 -2.452651 0.913500 -6.090000 -17.045700 12.647614 9.147066 -29.815482 -1.870496 -8.281705 24.630790 -0.445747 3.132528 2.516648 -0.000700 -0.169700 0.466300 1.059060 1.298309 9.984596 4.516938 0.489782 1.250907 -1.159574 4.958623 35.766579 -1.894400 3.415200 18.287400 -104.107742 -20.422538 76.638823 18.294744 -31.024784 -4.082469 -0.407244 1.377285 -46.488742 -7.125000 0.000000 0.000000 97.385375 18.377601 59.541694 -21.125746 34.703518 -6.150296 -0.526373 -0.394509 -42.632981 7.125000 0.000000 0.000000 
-10.257240 17.923583 5.552107 -33.411545 77.806869 -18.026086 -3.996559 0.984364 -28.166961 1.240559 9.521987 27.675079 -0.571448 4.123551 -2.414583 0.857100 -5.904000 -16.506100 12.572811 8.961300 -29.882324 -1.874650 -8.297649 24.669395 -0.444814 3.114155 2.460485 -0.000000 0.010600 -0.029100 1.080242 1.327507 9.945120 4.500708 0.507305 1.207270 -1.184736 4.843292 35.755007 -1.926400 3.374400 18.259000 -104.132100 -20.376367 76.741128 18.307387 -31.030074 -4.066877 -0.378257 1.403781 -46.412991 -7.125000 0.000000 0.000000 97.344692 18.324460 59.413367 -21.172443 34.755208 -6.173955 -0.526523 -0.393298 -42.804238 7.125000 0.000000 0.000000 
-10.256740 17.923284 5.545510 -33.600386 78.039022 -18.185832 -4.047519 0.821251 -28.177173 1.225861 9.510479 27.632434 -0.540652 3.976514 -2.388978 0.782300 -5.646800 -15.763100 12.456736 8.849304 -29.938687 -1.877699 -8.309868 24.698222 -0.433153 3.002016 2.396157 -0.000100 0.065000 -0.178700 1.050239 1.367157 9.907758 4.453249 0.527456 1.184865 -1.168653 4.724020 35.725369 -1.940700 3.336500 18.217300 -104.116627 -20.315774 76.748619 18.332044 -31.070405 -4.093191 -0.384565 1.394049 -46.341330 -7.125000 0.000000 0.000000 97.491510 18.345378 59.245862 -21.097718 34.670762 -6.133695 -0.527920 -0.391300 -42.785777 7.125000 0.000000 0.000000 
-10.255741 17.923483 5.540913 -33.445918 78.197098 -17.996678 -4.150122 0.755219 -28.212865 1.213310 9.501764 27.601896 -0.511386 3.837890 -2.383539 0.752000 -5.538900 -15.452300 12.251289 8.940988 -29.917144 -1.875832 -8.309147 24.690572 -0.406993 2.767056 2.335009 -0.000100 0.048400 -0.132900 1.069191 1.397765 9.915598 4.524094 0.541939 1.211988 -1.158648 4.691212 35.654115 -1.938800 3.321100 18.166400 -104.055548 -20.294024 76.819884 18.448148 -31.220786 -4.154718 -0.386174 1.393690 -46.602853 -7.125000 0.000000 0.000000 97.655695 18.409552 59.168970 -20.968580 34.526747 -6.066644 -0.528165 -0.387535 -42.585823 7.125000 0.000000 0.000000 
-10.254242 17.924883 5.537914 -33.578393 78.274638 -18.136547 -4.197207 0.846601 -28.256003 1.210903 9.497051 27.589756 -0.481438 3.692480 -2.323281 0.814500 -5.759000 -16.086800 12.164371 9.106700 -29.804453 -1.870228 -8.301497 24.657845 -0.372673 2.465203 2.253496 -0.001000 0.202900 -0.557500 1.152078 1.439561 9.927778 4.584974 0.565298 1.206841 -1.130489 4.689789 35.632995 -1.914900 3.316500 18.141100 -103.949273 -20.245693 77.184450 18.717230 -31.551063 -4.270259 -0.383937 1.414216 -47.688306 -7.125000 0.000000 0.000000 97.660933 18.392629 59.147293 -20.921577 34.475382 -6.044429 -0.526210 -0.380984 -42.432905 7.125000 0.000000 0.000000 
-10.252342 17.928181 5.533516 -34.502409 78.414169 -19.057740 -3.997373 0.700847 -28.180363 1.213842 9.490709 27.578952 -0.383510 3.231533 -2.331275 0.646800 -5.144700 -14.321600 12.254472 9.140695 -29.726009 -1.863276 -8.292927 24.619421 -0.343639 2.211075 2.123775 -0.002300 0.308300 -0.847000 1.261568 1.424796 9.934917 4.548181 0.563031 1.202554 -1.122337 4.674652 35.680605 -1.909200 3.312900 18.175100 -103.882577 -20.246644 77.235729 18.839613 -31.705620 -4.344355 -0.441935 1.369379 -48.170760 -7.125000 0.000000 0.000000 97.583746 18.369077 59.292958 -20.968080 34.527533 -6.068913 -0.525765 -0.379135 -42.580289 7.125000 0.000000 0.000000 
-10.250743 17.929980 5.528019 -35.242917 78.681308 -19.753844 -3.886569 0.436278 -28.147590 1.211391 9.489078 27.573891 -0.284767 2.761848 -2.348130 0.473500 -4.413100 -12.241800 12.239516 9.047891 -29.735655 -1.855114 -8.283308 24.577597 -0.320799 2.009406 2.010822 -0.005200 0.464200 -1.275500 1.277255 1.413612 9.923491 4.499588 0.559439 1.212476 -1.133909 4.568234 35.687269 -1.938300 3.280100 18.178900 -103.903921 -20.269292 76.934421 18.678527 -31.501271 -4.258690 -0.424052 1.375673 -47.239304 -7.125000 0.000000 0.000000 97.424681 18.340151 59.380031 -21.054487 34.627991 -6.118025 -0.522440 -0.383035 -42.697506 7.125000 0.000000 0.000000 
-10.249944 17.929880 5.522922 -35.354627 78.955999 -19.836827 -4.019830 0.349591 -28.232862 1.203870 9.491822 27.574427 -0.251451 2.591062 -2.281276 0.483400 -4.458500 -12.370200 12.089449 8.914268 -29.777513 -1.850597 -8.282170 24.562244 -0.308052 1.894082 1.975780 -0.012800 0.731700 -2.010800 1.189517 1.462209 9.912490 4.460439 0.580337 1.211868 -1.063509 4.389623 35.669691 -1.937600 3.227200 18.152900 -103.874121 -20.277408 77.060146 18.599189 -31.409543 -4.227790 -0.414996 1.381544 -47.255721 -7.125000 0.000000 0.000000 97.434783 18.352563 59.151242 -21.005713 34.577358 -6.096522 -0.519977 -0.385582 -42.252905 7.125000 0.000000 0.000000 
-10.248844 17.932079 5.516725 -35.456185 79.220692 -19.936051 -4.150542 0.257751 -28.278195 1.193984 9.489466 27.562887 -0.221220 2.436124 -2.238613 0.496100 -4.515600 -12.531800 11.928345 8.796104 -29.809609 -1.853881 -8.296778 24.595938 -0.298478 1.806370 1.912488 -0.015100 0.793300 -2.180200 1.134659 1.464900 9.957739 4.445607 0.577759 1.247420 -0.992314 4.274507 35.678716 -1.921600 3.192600 18.168700 -103.788731 -20.324277 77.435315 18.633315 -31.465880 -4.256206 -0.403326 1.398096 -48.182738 -7.125000 0.000000 0.000000 97.578809 18.436199 58.965452 -20.920968 34.483789 -6.052290 -0.521044 -0.385472 -41.911873 7.125000 0.000000 0.000000 
-10.247345 17.931280 5.510228 -36.109346 79.504058 -20.585559 -4.309968 0.360302 -28.451565 1.184459 9.486000 27.537691 -0.231300 2.470134 -2.102593 0.677700 -5.264000 -14.663100 11.860788 8.684395 -29.836804 -1.861225 -8.317532 24.650755 -0.277610 1.628756 1.790459 -0.012800 0.730300 -2.007000 1.111704 1.439121 10.009739 4.379196 0.564098 1.296215 -0.935411 4.159080 35.692490 -1.912200 3.156300 18.187700 -103.927981 -20.474721 76.663937 18.284142 -31.025245 -4.092546 -0.415944 1.364795 -45.751053 -7.125000 0.000000 0.000000 97.620073 18.471815 59.017300 -20.968419 34.539966 -6.077193 -0.520887 -0.384196 -42.156778 7.125000 0.000000 0.000000 
-10.246046 17.928281 5.504631 -36.992565 79.752944 -21.469881 -4.423008 0.491149 -28.618695 1.177074 9.482150 27.510148 -0.241828 2.505442 -1.925260 0.877000 -5.970200 -16.698100 11.902656 8.451041 -29.896603 -1.866270 -8.332846 24.690854 -0.271402 1.571511 1.767812 -0.010600 0.666300 -1.830900 1.181898 1.421541 10.038931 4.345686 0.558244 1.291995 -0.863505 4.057024 35.703951 -1.881800 3.118000 18.194000 -103.704244 -20.360712 77.924525 18.784306 -31.641936 -4.300950 -0.398408 1.434991 -49.527950 -7.125000 0.000000 0.000000 97.614577 18.449739 59.038998 -20.992528 34.566674 -6.089900 -0.520581 -0.381606 -42.186284 7.125000 0.000000 0.000000 
-10.244446 17.928581 5.498834 -37.566389 79.945726 -22.040407 -4.443417 0.433434 -28.650397 1.172463 9.480226 27.498610 -0.205776 2.322722 -1.852649 0.851800 -5.886100 -16.454400 11.920160 8.209363 -29.954874 -1.865917 -8.337470 24.697717 -0.275228 1.596489 1.825063 -0.011700 0.698700 -1.920000 1.360890 1.403166 10.082700 4.451416 0.554556 1.324003 -0.839130 4.052417 35.708492 -1.847200 3.099900 18.210100 -103.921674 -20.484248 77.381268 18.583720 -31.391225 -4.213320 -0.400444 1.405038 -48.050327 -7.125000 0.000000 0.000000 97.583515 18.470680 58.960497 -20.940446 34.510890 -6.064089 -0.519775 -0.380179 -41.881572 7.125000 0.000000 0.000000 
-10.242547 17.931180 5.493736 -38.075600 80.078117 -22.525722 -4.449191 0.408253 -28.707699 1.170756 9.481244 27.496136 -0.167527 2.132488 -1.823278 0.824000 -5.791500 -16.180800 11.887013 8.216782 -29.928369 -1.861365 -8.329618 24.669821 -0.252104 1.405795 1.825476 -0.014900 0.788400 -2.166900 1.513325 1.414423 10.140727 4.537149 0.564565 1.404165 -0.841287 4.041400 35.653980 -1.837600 3.082300 18.186500 -104.029583 -20.579952 77.230650 18.481218 -31.259168 -4.164081 -0.399901 1.398038 -47.602313 -7.125000 0.000000 0.000000 97.515603 18.556546 59.033580 -20.921780 34.494342 -6.057142 -0.518108 -0.382558 -41.845029 7.125000 0.000000 0.000000 
-10.241848 17.933478 5.488539 -39.261287 80.225173 -23.636548 -4.249377 0.211540 -28.696072 1.167937 9.472714 27.463274 -0.084999 1.728873 -1.804780 0.674700 -5.252300 -14.629600 11.953083 8.270771 -29.925740 -1.857337 -8.317710 24.637057 -0.218752 1.139881 1.765317 -0.012400 0.717700 -1.972300 1.585177 1.423563 10.141473 4.463464 0.573590 1.450507 -0.795944 3.970377 35.594722 -1.826500 3.058600 18.140200 -103.939989 -20.571620 77.652801 18.559014 -31.356820 -4.192362 -0.378638 1.435658 -48.894103 -7.125000 0.000000 0.000000 97.477792 18.614700 59.220786 -20.926978 34.497576 -6.058642 -0.519565 -0.384645 -42.012031 7.125000 0.000000 0.000000 
-10.242148 17.934278 5.482142 -40.371592 80.486084 -24.688196 -4.116440 -0.075610 -28.647695 1.157495 9.459268 27.413557 -0.000763 1.307434 -1.763311 0.533900 -4.682100 -13.004000 11.918599 8.284748 -29.915439 -1.853852 -8.312740 24.616803 -0.178216 0.816041 1.653219 -0.002000 0.285500 -0.784400 1.610905 1.400918 10.101442 4.389411 0.565867 1.421113 -0.756524 3.890376 35.608742 -1.814500 3.032400 18.134800 -103.873263 -20.531773 77.743494 18.693872 -31.527486 -4.257775 -0.382933 1.442283 -49.512180 -7.125000 0.000000 0.000000 97.485252 18.608990 59.301896 -20.918481 34.484048 -6.051880 -0.521654 -0.381820 -42.164769 7.125000 0.000000 0.000000 
